# xmcd CD database file
#
# Track frame offsets:
#	150
#	12420
#	25900
#	39027
#	52277
#	65037
#	78842
#	93587
#	122387
#	136104
#	149974
#	164744
#
# Disc length: 2403 seconds
#
# Revision: 2
# Processed by: cddbd v1.5PL3 Copyright (c) Steve Scherf et al.
# Submitted via: CDex 1.50
#
DISCID=a809610c
DTITLE=Lonnie Johnson - Steppin´on The Blues
DYEAR=1990
DGENRE=Blues
TTITLE0=Mr. Johnson´s Blues
TTITLE1=Sweet Potato Blues
TTITLE2=Steppin´on The Blues
TTITLE3=Mean Old Bedbug Blues
TTITLE4=Toothache Blues Part-1
TTITLE5=Have To Change Keys
TTITLE6=Guitar Blues
TTITLE7=She´s Making Whoopee In Hell Tonight
TTITLE8=No More Women Blues
TTITLE9=Deep Blue Sea Blues
TTITLE10=No More Troubles Now
TTITLE11=Got The Blues For Murder Only
EXTD=YEAR: 1990
EXTT0=
EXTT1=
EXTT2=
EXTT3=
EXTT4=
EXTT5=
EXTT6=
EXTT7=
EXTT8=
EXTT9=
EXTT10=
EXTT11=
PLAYORDER=
